<?xml version="1.0" encoding="UTF-8"?>
<svg version="1.1" xmlns="http://www.w3.org/2000/svg" width="620" height="580">
<path d="M0 0 C204.6 0 409.2 0 620 0 C620 191.4 620 382.8 620 580 C415.4 580 210.8 580 0 580 C0 388.6 0 197.2 0 0 Z " fill="#1E5EB9" transform="translate(0,0)"/>
<path d="M0 0 C19.14 0 38.28 0 58 0 C60.475 12.375 60.475 12.375 63 25 C64.31139259 31.50598321 64.31139259 31.50598321 65.62280273 38.01196289 C68.5340498 52.47583378 71.33730341 66.95499466 74.03453064 81.46052551 C74.15848709 82.12710678 74.28244354 82.79368805 74.41015625 83.48046875 C74.53568375 84.15563034 74.66121124 84.83079193 74.7905426 85.52641296 C76.45815344 94.48109456 78.16806908 103.42774733 79.875 112.375 C80.21313816 114.14811133 80.55127291 115.92122331 80.8894043 117.69433594 C81.57616107 121.29511777 82.26313364 124.89585837 82.95019531 128.49658203 C84.54856737 136.87431421 86.14380185 145.25264412 87.73931885 153.63092041 C88.7087784 158.72155036 88.7087784 158.72155036 89.67880249 163.81207275 C89.98451598 165.4181544 90.28939871 167.02439443 90.59341431 168.63079834 C91.41669416 172.9746574 92.25876467 177.31400048 93.12304688 181.64990234 C93.3084906 182.59189987 93.49393433 183.5338974 93.68499756 184.50444031 C94.04085268 186.31068871 94.40174018 188.11595591 94.76861572 189.91999817 C95.70647737 194.71245477 96.18625267 199.11663635 96 204 C96.66 204 97.32 204 98 204 C98.0402832 203.44707275 98.08056641 202.89414551 98.12207031 202.32446289 C98.78258539 194.58532353 100.23399383 187.04722679 101.75 179.4375 C102.02330819 178.04816627 102.29625151 176.65876072 102.56884766 175.26928711 C103.37302713 171.17827953 104.18588735 167.08904247 105 163 C105.21172852 161.93297852 105.42345703 160.86595703 105.64160156 159.76660156 C106.61758462 154.85084046 107.60078839 149.93658452 108.58984375 145.0234375 C109.5268866 140.36649314 110.45634149 135.7081028 111.38085938 131.04866028 C112.06187905 127.61708474 112.74457425 124.1858432 113.42730713 120.75460815 C113.75707291 119.09534461 114.08617959 117.43594988 114.41448975 115.77639771 C116.46730171 105.40320273 118.62577943 95.05763348 120.86328125 84.72265625 C124.20103754 69.27189434 127.2348168 53.76598245 130.25 38.25 C131.04348632 34.16902281 131.83781077 30.08821356 132.63519287 26.00799561 C133.12471692 23.50191882 133.61234495 20.99547062 134.09771729 18.48858643 C134.3184491 17.35830017 134.53918091 16.22801392 134.76660156 15.06347656 C134.95724182 14.08203674 135.14788208 13.10059692 135.34429932 12.0894165 C136.1334473 8.3712462 137.07812388 4.68750449 138 1 C154.5 1 171 1 188 1 C189.3509375 7.77789062 190.701875 14.55578125 192.09375 21.5390625 C192.96852959 25.92322132 193.84343026 30.30735533 194.71875 34.69140625 C196.09749775 41.59694051 197.47588007 48.50254575 198.8515625 55.40869141 C204.0306652 81.40588707 209.27918173 107.38369605 214.79783154 133.31109619 C217.45862029 145.83907735 219.92871529 158.40590234 222.34263611 170.98348999 C222.98417429 174.32544028 223.62807846 177.66693392 224.271698 181.00848389 C224.74362907 183.46681328 225.21092983 185.92599296 225.67797852 188.38525391 C225.9674284 189.89228762 226.25705219 191.39928795 226.546875 192.90625 C226.74497017 193.96052689 226.74497017 193.96052689 226.94706726 195.03610229 C227.36738833 198.29841964 227.36738833 198.29841964 229 201 C233.53927744 178.57467666 237.90993571 156.12283731 242.12939453 133.63525391 C243.414503 126.78871226 244.70954594 119.94405036 246.00482178 113.09942627 C246.43988321 110.79990351 246.87450863 108.50029863 247.30908203 106.20068359 C248.83090657 98.15153308 250.36095724 90.10402193 251.90234375 82.05859375 C252.39451373 79.48759694 252.88653611 76.91657197 253.37841797 74.34552002 C253.70817074 72.62197816 254.03808482 70.89846716 254.36816406 69.17498779 C256.45178672 58.28554222 258.48676212 47.38817972 260.47265625 36.48046875 C260.6787854 35.34983002 260.88491455 34.21919128 261.09729004 33.05429077 C262.11000992 27.4958464 263.11789341 21.93658681 264.11865234 16.37597656 C264.48392554 14.36390979 264.84931654 12.35186439 265.21484375 10.33984375 C265.38113785 9.40657761 265.54743195 8.47331146 265.71876526 7.51176453 C265.87336716 6.66475479 266.02796906 5.81774506 266.18725586 4.94506836 C266.32078964 4.20348984 266.45432343 3.46191132 266.59190369 2.69786072 C267 1 267 1 268 0 C269.81055025 -0.09376053 271.62477201 -0.1174411 273.43774414 -0.11352539 C275.17943626 -0.11341209 275.17943626 -0.11341209 276.95631409 -0.11329651 C278.85159096 -0.10555458 278.85159096 -0.10555458 280.78515625 -0.09765625 C282.71408974 -0.09553383 282.71408974 -0.09553383 284.68199158 -0.09336853 C288.10643443 -0.08954418 291.53083509 -0.07971462 294.95526123 -0.06866455 C298.44738189 -0.05844864 301.93950934 -0.05387053 305.43164062 -0.04882812 C312.28777778 -0.03809227 319.14388687 -0.02101684 326 0 C324.83330707 9.7387789 323.25425326 19.30920726 321.25830078 28.91430664 C320.46794595 32.72281274 319.69629085 36.53509284 318.92578125 40.34765625 C318.76566559 41.13951324 318.60554993 41.93137024 318.44058228 42.7472229 C316.68590608 51.47842895 315.09044623 60.23767491 313.5 69 C311.28396139 81.19201148 308.96314287 93.3554991 306.5 105.5 C304.1263217 117.20842906 301.8829077 128.93288168 299.75 140.6875 C296.81703791 156.84256185 293.68062631 172.95449547 290.5 189.0625 C287.40905525 204.7200792 284.3229644 220.37728867 281.375 236.0625 C281.24293152 236.7649585 281.11086304 237.46741699 280.97479248 238.19116211 C280.43511903 241.06226778 279.89553193 243.93338963 279.35623169 246.80456543 C277.50389684 256.65510454 275.6226508 266.50014773 273.74005127 276.34494019 C273.33297405 278.47451113 272.92635107 280.60416896 272.52020264 282.73391724 C271.95468363 285.69912717 271.38769875 288.66405312 270.8203125 291.62890625 C270.65086121 292.51872192 270.48140991 293.4085376 270.30682373 294.32531738 C270.14901428 295.14810181 269.99120483 295.97088623 269.82861328 296.81860352 C269.69206329 297.53307144 269.55551331 298.24753937 269.41482544 298.98365784 C268.99968111 301.00155005 268.4996607 303.00135722 268 305 C244.57 305 221.14 305 197 305 C193.98136294 290.51054213 190.99218817 276.04009877 188.25 261.5 C187.90876613 259.70065398 187.567371 257.90133854 187.22583008 256.10205078 C185.42439005 246.59975441 183.6419939 237.09396907 181.87109375 227.5859375 C181.14354381 223.68223295 180.41561735 219.77859876 179.6875 215.875 C179.50634644 214.90305695 179.32519287 213.93111389 179.1385498 212.92971802 C175.41111769 192.95507921 171.4973217 173.01799483 167.54174805 153.08740234 C167.19879951 151.35465309 167.19879951 151.35465309 166.84892273 149.5868988 C166.42112964 147.42614254 165.99180026 145.26568962 165.56062317 143.10560608 C164.56647855 138.0813334 163.65970187 133.07943839 163 128 C158.13216353 152.69790972 153.26533877 177.3952666 148.61279297 202.13476562 C148.33302492 203.62239905 148.05323961 205.11002923 147.7734375 206.59765625 C147.63372528 207.34060944 147.49401306 208.08356262 147.35006714 208.84902954 C145.44493947 218.96643748 143.50159847 229.07655993 141.5625 239.1875 C137.35696889 261.12158995 133.17540401 283.06014985 129 305 C105.57 305 82.14 305 58 305 C56.55196662 299.93188316 55.3630229 295.04063205 54.44140625 289.87890625 C54.14059825 288.23330707 53.83973263 286.58771842 53.53881836 284.94213867 C53.38057587 284.0696347 53.22233337 283.19713074 53.05929565 282.29818726 C49.68692116 263.72765055 46.10155501 245.2024402 42.4375 226.6875 C39.21903572 210.41255137 36.05835076 194.13301359 33.10324097 177.80819702 C30.38929558 162.84167467 27.45029055 147.9215097 24.5 133 C21.26339362 116.63040765 18.07342218 100.25801403 15.10955811 83.83676147 C13.22494196 73.40906889 11.22680998 63.0072783 9.1640625 52.61328125 C8.91432678 51.35305145 8.66459106 50.09282166 8.4072876 48.79440308 C7.16051161 42.50906175 5.90654082 36.22526661 4.64257812 29.94335938 C4.18081616 27.62503454 3.71922018 25.30667663 3.2578125 22.98828125 C3.04460358 21.94086258 2.83139465 20.89344391 2.61172485 19.81428528 C2.41388397 18.81507553 2.21604309 17.81586578 2.01220703 16.78637695 C1.84012726 15.93058548 1.66804749 15.07479401 1.49075317 14.19306946 C0.76811221 9.49122968 0.43068291 4.73751196 0 0 Z " fill="#FDFEFE" transform="translate(57,145)"/>
<path d="M0 0 C19.47 0 38.94 0 59 0 C59 84.81 59 169.62 59 257 C89.03 257 119.06 257 150 257 C150 272.51 150 288.02 150 304 C100.5 304 51 304 0 304 C0 203.68 0 103.36 0 0 Z " fill="#FEFEFE" transform="translate(420,146)"/>
<path d="M0 0 C3.63 0 7.26 0 11 0 C11 191.4 11 382.8 11 580 C7.37 580 3.74 580 0 580 C0.66 578.68 1.32 577.36 2 576 C2.69763692 574.50468766 3.3849504 573.00452078 4.0625 571.5 C4.40410156 570.7471875 4.74570312 569.994375 5.09765625 569.21875 C7.14960237 564.1732721 7.14347905 559.38580648 7.13422108 553.99304008 C7.13657331 553.06788027 7.13892554 552.14272045 7.14134905 551.18952549 C7.14804541 548.06635128 7.14758063 544.94321863 7.14717102 541.82003784 C7.15046924 539.5674461 7.15419472 537.31485495 7.1583125 535.06226456 C7.16834527 528.85394634 7.17205134 522.64563779 7.17470181 516.4373126 C7.17820092 510.43501976 7.18634783 504.43273425 7.19424575 498.43044602 C7.21509301 482.34642096 7.22556033 466.26239407 7.23437535 450.17835865 C7.2385814 442.57015147 7.24380344 434.96194508 7.24905988 427.35373856 C7.26695018 401.31241584 7.28194648 375.27109289 7.28938007 349.22976494 C7.28985483 347.59478792 7.29033072 345.9598109 7.29080774 344.32483388 C7.29104411 343.51402902 7.29128049 342.70322416 7.29152403 341.86784945 C7.29272523 337.7598814 7.29394068 333.65191336 7.29516602 329.54394531 C7.29540617 328.7287055 7.29564632 327.91346568 7.29589374 327.07352162 C7.30378722 300.63964037 7.32722 274.20580398 7.35972196 247.77194232 C7.39401832 219.82770329 7.41373102 191.88349051 7.41702431 163.93923008 C7.41744186 160.87167874 7.41792142 157.80412741 7.41844749 154.73657608 C7.41857069 153.981253 7.41869388 153.22592992 7.4188208 152.44771826 C7.42115305 140.29139146 7.43681432 128.13511675 7.45728934 115.97880852 C7.47754333 103.75988444 7.48302666 91.54102294 7.47351871 79.32208519 C7.46876126 72.70219861 7.47092288 66.08244547 7.49028015 59.4625721 C7.50784742 53.40259335 7.50696622 47.34290805 7.49138286 41.28292646 C7.48899702 39.09041607 7.49338063 36.8978857 7.50521151 34.70540594 C7.52030367 31.72391657 7.51067595 28.74347057 7.49498463 25.76200676 C7.50520683 24.91184333 7.51542904 24.0616799 7.52596101 23.18575394 C7.42758125 14.61418395 3.92975416 7.46653291 0 0 Z " fill="#0D52B4" transform="translate(609,0)"/>
</svg>
